# xmcd
#
# Track frame offsets:
#	150
#	12302
#	25395
#	43565
#	57807
#	77267
#	92192
#	112145
#	128482
#	149020
#
# Disc length: 2174 seconds
#
# Revision: 1
# Processed by: cddbd v1.5.2PL0 Copyright (c) Steve Scherf et al.
# Submitted via: audiograbber 1.83.01
#
DISCID=7f087c0a
DTITLE=Various Artist - Country Love Songs  [CD3)
DYEAR=1900
DGENRE=Oldies
TTITLE0=Mindy McCready - A Girl's Gotta Do (What A Girl's Gotta Do)
TTITLE1=John Anderson - I've Got It Made
TTITLE2=Vince Gill - True Love
TTITLE3=Pam Tillis - Shake The Sugar Tree
TTITLE4=Restless Heart - I'll Still Be Loving You
TTITLE5=Aaron Tippin - That's As Close As I'll Get To Loving You
TTITLE6=K.T. Oslin - Hey Bobby
TTITLE7=Eddie Rabbitt - We Must Be Doin' Somethin' Right
TTITLE8=Lari White - Now I Know
TTITLE9=Paul Overstreet - Richest Man On Earth
EXTD=
EXTT0=
EXTT1=
EXTT2=
EXTT3=
EXTT4=
EXTT5=
EXTT6=
EXTT7=
EXTT8=
EXTT9=
PLAYORDER=
